<svg xmlns="http://www.w3.org/2000/svg" width="356" height="315" viewBox="0 0 356 315">
  <path id="Union_1" data-name="Union 1" d="M-1308-1599.745c0-27.058,15.962-50.759,39.864-63.878a104.091,104.091,0,0,1-26.781-69.6c0-58.973,49.635-106.779,110.863-106.779,44.082,0,82.157,24.785,100.023,60.673a115.571,115.571,0,0,1,21.168-1.944c61.228,0,110.863,47.807,110.863,106.78s-49.635,106.78-110.863,106.78a112.638,112.638,0,0,1-79.188-32.05v.016c0,41.28-37.149,74.745-82.974,74.745S-1308-1558.465-1308-1599.745Z" transform="translate(1308 1840)" fill="#fff"/>
</svg>
