<svg xmlns="http://www.w3.org/2000/svg" width="20" height="20" viewBox="0 0 20 20">
  <path id="Plus_Icon" data-name="Plus Icon" d="M18.571,10.107H12.143V3.679A1.429,1.429,0,0,0,10.714,2.25H9.286A1.429,1.429,0,0,0,7.857,3.679v6.429H1.429A1.429,1.429,0,0,0,0,11.536v1.429a1.429,1.429,0,0,0,1.429,1.429H7.857v6.429A1.429,1.429,0,0,0,9.286,22.25h1.429a1.429,1.429,0,0,0,1.429-1.429V14.393h6.429A1.429,1.429,0,0,0,20,12.964V11.536A1.429,1.429,0,0,0,18.571,10.107Z" transform="translate(0 -2.25)" fill="#fff"/>
</svg>
