<svg xmlns="http://www.w3.org/2000/svg" xmlns:xlink="http://www.w3.org/1999/xlink" width="69" height="69" viewBox="0 0 69 69">
  <defs>
    <filter id="Ellipse_16" x="0" y="0" width="69" height="69" filterUnits="userSpaceOnUse">
      <feOffset dy="3" input="SourceAlpha"/>
      <feGaussianBlur stdDeviation="3" result="blur"/>
      <feFlood flood-color="#ff68b8"/>
      <feComposite operator="in" in2="blur"/>
      <feComposite in="SourceGraphic"/>
    </filter>
  </defs>
  <g id="Plus_Icon" data-name="Plus Icon" transform="translate(9 6)">
    <g transform="matrix(1, 0, 0, 1, -9, -6)" filter="url(#Ellipse_16)">
      <circle id="Ellipse_16-2" data-name="Ellipse 16" cx="25.5" cy="25.5" r="25.5" transform="translate(9 6)" fill="#fff"/>
    </g>
    <path id="Path_97" data-name="Path 97" d="M37.583,22.948H27.346V12.71a2.2,2.2,0,1,0-4.4,0V22.948H12.71a2.106,2.106,0,0,0-2.2,2.2,2.128,2.128,0,0,0,2.2,2.2H22.948V37.583a2.13,2.13,0,0,0,2.2,2.2,2.188,2.188,0,0,0,2.2-2.2V27.346H37.583a2.2,2.2,0,0,0,0-4.4Z" transform="translate(-0.13 1.081)" fill="#ffaa90"/>
  </g>
</svg>
