<svg id="Stats_Icon" data-name="Stats Icon" xmlns="http://www.w3.org/2000/svg" width="24" height="26" viewBox="0 0 24 26">
  <path id="Path_91" data-name="Path 91" d="M12.938,30.5h3.375a.554.554,0,0,0,.563-.542V5.042a.554.554,0,0,0-.562-.542H12.938a.554.554,0,0,0-.562.542V29.958A.554.554,0,0,0,12.938,30.5Z" transform="translate(-5.875 -4.5)"/>
  <path id="Path_92" data-name="Path 92" d="M6.188,31.5H9.563a.564.564,0,0,0,.563-.562V20.813a.564.564,0,0,0-.562-.562H6.188a.564.564,0,0,0-.562.563V30.938A.564.564,0,0,0,6.188,31.5Z" transform="translate(-5.625 -5.5)"/>
  <path id="Path_93" data-name="Path 93" d="M19.695,31.5h3.361a.567.567,0,0,0,.57-.57V16.32a.567.567,0,0,0-.57-.57H19.695a.567.567,0,0,0-.57.57V30.93A.567.567,0,0,0,19.695,31.5Z" transform="translate(-6.125 -5.5)"/>
  <path id="Path_94" data-name="Path 94" d="M25.875,9.57V30.93a.567.567,0,0,0,.57.57h3.361a.567.567,0,0,0,.57-.57V9.57a.567.567,0,0,0-.57-.57H26.445A.567.567,0,0,0,25.875,9.57Z" transform="translate(-6.375 -5.5)"/>
</svg>
