<svg xmlns="http://www.w3.org/2000/svg" width="23" height="23" viewBox="0 0 23 23">
  <g id="Unchecked_Icon" data-name="Unchecked Icon" fill="none">
    <path d="M11.5,0A11.5,11.5,0,1,1,0,11.5,11.5,11.5,0,0,1,11.5,0Z" stroke="none"/>
    <path d="M 11.5 3 C 6.813079833984375 3 3 6.813079833984375 3 11.5 C 3 16.18692016601562 6.813079833984375 20 11.5 20 C 16.18692016601562 20 20 16.18692016601562 20 11.5 C 20 6.813079833984375 16.18692016601562 3 11.5 3 M 11.5 0 C 17.85127067565918 0 23 5.14872932434082 23 11.5 C 23 17.85127067565918 17.85127067565918 23 11.5 23 C 5.14872932434082 23 0 17.85127067565918 0 11.5 C 0 5.14872932434082 5.14872932434082 0 11.5 0 Z" stroke="none" fill="#fff"/>
  </g>
</svg>
