<svg xmlns="http://www.w3.org/2000/svg" width="24" height="25.851" viewBox="0 0 24 25.851">
  <g id="Unlocked_Icon" data-name="Unlocked Icon" transform="translate(1.5 1.5)">
    <path id="Path_79" data-name="Path 79" d="M6.833,16.5H23.167A2.273,2.273,0,0,1,25.5,18.707v7.724a2.273,2.273,0,0,1-2.333,2.207H6.833A2.273,2.273,0,0,1,4.5,26.431V18.707A2.273,2.273,0,0,1,6.833,16.5Z" transform="translate(-4.5 -5.787)" fill="none" stroke="#fff" stroke-linecap="round" stroke-linejoin="round" stroke-width="3"/>
    <path id="Path_80" data-name="Path 80" d="M10.5,13.33V7.084c0-1.642,1.254-3.058,3.362-3.8A6.134,6.134,0,0,1,15.787,3c2.92,0,5.287,1.828,5.287,4.084V6.55" transform="translate(-5.5 -3)" fill="none" stroke="#fff" stroke-linecap="round" stroke-linejoin="round" stroke-width="3"/>
  </g>
</svg>
